<?xml version="1.0" standalone="no"?>
<!DOCTYPE svg PUBLIC "-//W3C//DTD SVG 20010904//EN"
 "http://www.w3.org/TR/2001/REC-SVG-20010904/DTD/svg10.dtd">
<svg version="1.0" xmlns="http://www.w3.org/2000/svg"
 width="1428.000000pt" height="1493.000000pt" viewBox="0 0 1428.000000 1493.000000"
 preserveAspectRatio="xMidYMid meet">

<g transform="translate(0.000000,1493.000000) scale(0.100000,-0.100000)"
fill="#000000" stroke="none">
<path d="M4224 11948 c-4 -6 -9 -44 -12 -85 -5 -79 -16 -84 -49 -20 -12 23
-17 27 -24 16 -5 -8 -9 -9 -9 -3 0 20 -46 22 -71 3 -17 -13 -27 -15 -36 -7 -9
7 -13 7 -13 0 0 -30 129 -111 178 -112 22 0 22 -1 22 -149 0 -159 6 -180 50
-166 19 6 20 14 20 154 l0 149 46 11 c61 16 115 44 160 83 34 30 35 32 15 39
-11 5 -30 6 -42 4 -31 -6 -101 -44 -122 -66 -10 -10 -24 -19 -32 -19 -7 0 -16
-6 -18 -12 -3 -7 -6 28 -6 78 -1 86 -2 91 -26 102 -18 8 -26 8 -31 0z"/>
<path d="M9945 10729 c-7 -77 -8 -80 -26 -63 -10 9 -21 25 -25 36 -3 11 -12
17 -20 14 -8 -3 -14 -2 -14 2 0 12 -59 6 -75 -8 -8 -6 -19 -8 -26 -4 -7 4 -10
2 -7 -7 8 -25 88 -79 141 -94 l52 -15 0 -146 c0 -129 2 -148 18 -158 12 -8 22
-8 35 0 15 10 17 31 20 156 l3 146 47 12 c26 6 65 22 87 35 50 29 105 85 84
86 -8 0 -23 2 -34 4 -26 5 -109 -38 -148 -78 l-32 -32 -8 85 c-9 105 -11 110
-41 110 -23 0 -24 -4 -31 -81z"/>
<path d="M1469 10655 c-860 -241 -1380 -571 -1454 -922 -18 -85 -5 -361 25
-538 110 -646 476 -1301 1042 -1866 214 -214 419 -383 701 -579 l150 -105 5
-49 c2 -27 13 -70 25 -95 42 -90 230 -251 374 -321 34 -16 64 -30 67 -30 3 0
30 -11 61 -25 47 -22 161 -62 465 -165 30 -10 80 -21 110 -24 30 -4 87 -14
125 -22 39 -8 90 -19 115 -24 25 -5 68 -12 95 -16 28 -3 92 -15 144 -25 51
-11 125 -19 163 -19 60 0 79 5 122 29 64 37 202 94 331 138 343 115 825 200
1385 243 176 13 174 13 159 41 -6 12 -14 40 -16 63 -8 56 -7 264 0 301 4 17 9
50 11 75 3 25 13 79 22 120 9 41 20 93 24 115 5 22 13 52 19 66 12 33 16 138
8 204 -6 46 -6 47 4 15 6 -19 14 -39 18 -43 4 -4 24 16 44 45 39 56 44 75 77
288 10 63 23 135 29 160 6 25 22 97 35 160 41 197 78 354 87 372 5 10 9 27 9
37 0 11 5 23 10 26 6 4 8 11 5 16 -7 11 41 58 72 69 47 19 113 -31 129 -96 4
-16 9 -33 13 -39 3 -5 6 -17 8 -25 7 -50 16 -86 23 -95 4 -5 13 -43 20 -84 7
-41 18 -87 24 -102 l11 -27 114 63 c202 112 464 213 769 295 l122 34 0 194 c0
180 -1 194 -17 189 -10 -2 -88 -25 -173 -50 -353 -105 -854 -208 -1245 -257
-1720 -215 -3549 -91 -4794 326 -227 76 -404 151 -543 230 -265 150 -444 307
-528 465 -18 33 -30 62 -28 64 2 2 17 -22 33 -53 71 -136 290 -309 559 -443
653 -324 1557 -525 2766 -616 297 -22 1377 -26 1665 -5 889 63 1632 186 2195
364 l105 34 5 144 c3 80 5 458 5 840 l0 694 -50 19 c-54 20 -420 127 -436 127
-5 0 -9 -325 -9 -864 l0 -864 -107 -25 c-464 -109 -1068 -189 -1717 -228 -162
-10 -211 -10 -214 -1 -2 7 -10 12 -18 12 -8 0 -14 6 -14 13 0 14 -66 37 -109
37 -16 0 -40 4 -53 9 -13 5 -86 14 -163 20 -77 7 -157 16 -179 21 -22 5 -46 5
-55 0 -9 -5 -92 -18 -186 -30 -93 -12 -173 -26 -176 -31 -3 -5 -45 -21 -95
-35 -83 -25 -97 -26 -224 -20 -627 30 -1337 122 -1810 234 l-115 27 -3 861 -2
861 -108 -29 c-257 -69 -585 -189 -777 -285 -148 -74 -262 -151 -342 -231 -37
-37 -58 -53 -46 -36 39 55 161 162 255 224 230 150 533 275 911 376 l107 28 0
48 c0 26 -3 48 -7 47 -5 0 -78 -20 -164 -44z"/>
<path d="M6880 10655 c0 -44 1 -44 43 -55 116 -31 290 -82 356 -105 41 -14 78
-25 83 -25 4 0 8 22 8 48 l0 49 -137 41 c-156 47 -322 92 -340 92 -9 0 -13
-16 -13 -45z"/>
<path d="M12610 8345 c0 -40 3 -45 28 -51 104 -24 424 -122 525 -160 282 -106
544 -258 678 -393 42 -42 81 -85 87 -96 6 -12 -26 16 -71 60 -45 45 -111 100
-147 123 -202 132 -569 281 -939 382 -79 22 -148 40 -153 40 -4 0 -8 -389 -8
-864 0 -815 -1 -865 -17 -870 -46 -14 -305 -68 -458 -95 -314 -56 -825 -120
-1000 -124 -89 -2 -89 -2 -103 26 -9 18 -24 30 -43 34 -16 3 -29 12 -29 19 0
8 -7 14 -15 14 -22 0 -65 30 -65 44 0 7 -17 18 -37 25 -21 8 -50 22 -65 32
-14 11 -33 19 -42 19 -10 0 -16 9 -16 24 0 24 -21 33 -117 51 -19 4 -33 13
-33 21 0 8 -7 14 -15 14 -8 0 -15 7 -15 15 0 8 -17 19 -42 26 -24 6 -65 17
-91 25 -26 8 -114 21 -195 29 -81 9 -161 20 -179 26 -20 6 -39 7 -50 1 -10 -5
-92 -22 -183 -37 -107 -17 -168 -32 -173 -41 -4 -8 -14 -14 -21 -14 -8 0 -19
-6 -25 -14 -6 -7 -38 -19 -71 -26 -52 -11 -61 -16 -75 -46 -9 -19 -20 -32 -24
-30 -4 3 -15 -4 -24 -15 -9 -10 -24 -19 -32 -19 -8 0 -15 -4 -15 -8 0 -4 -13
-13 -30 -19 -16 -6 -30 -18 -30 -26 0 -19 -42 -30 -52 -14 -5 8 -9 7 -13 -5
-4 -9 -14 -18 -24 -21 -10 -2 -31 -24 -47 -48 -16 -23 -44 -51 -62 -62 -30
-18 -41 -18 -170 -7 -509 43 -957 107 -1364 196 l-167 37 -7 56 c-4 31 -4 417
-1 859 6 787 6 802 -13 802 -29 0 -307 -82 -450 -133 -240 -85 -472 -188 -530
-235 -23 -19 -24 -22 -11 -57 7 -20 21 -94 32 -163 36 -237 39 -257 49 -287 5
-16 14 -70 20 -119 6 -52 18 -100 28 -115 32 -47 80 -167 88 -216 13 -82 19
-104 41 -137 13 -20 26 -49 28 -65 2 -15 7 -53 11 -83 4 -30 7 -66 7 -79 1
-32 24 -44 184 -103 616 -224 1533 -380 2528 -428 267 -13 990 -13 1245 0 843
43 1595 154 2201 325 420 119 803 278 1041 434 118 77 262 208 310 283 17 26
33 46 36 44 2 -3 -16 -35 -41 -73 -297 -454 -1244 -812 -2599 -983 -518 -65
-983 -92 -1573 -92 -1213 0 -2230 138 -3135 426 -74 24 -145 46 -156 50 -21 6
-21 5 -16 -86 2 -51 5 -94 6 -95 1 -1 105 -11 231 -23 646 -59 1161 -172 1481
-325 135 -64 214 -116 275 -182 80 -85 83 -96 87 -283 l4 -165 126 -34 c389
-104 682 -225 913 -376 98 -64 222 -173 262 -229 11 -17 -12 2 -53 42 -166
162 -411 287 -850 432 -96 32 -226 72 -287 88 l-113 30 0 -864 0 -864 -22 -9
c-31 -12 -283 -65 -453 -96 -452 -83 -1028 -141 -1625 -165 -1046 -42 -2221
54 -3033 246 l-107 26 0 859 c0 472 -2 859 -4 859 -20 0 -379 -110 -486 -148
-383 -139 -596 -254 -739 -400 -41 -42 -64 -61 -51 -42 160 224 585 449 1135
599 l140 39 3 47 3 47 -33 -7 c-173 -37 -569 -167 -778 -257 -442 -189 -738
-435 -807 -668 -22 -75 -13 -384 17 -560 149 -895 781 -1788 1731 -2446 96
-66 166 -122 167 -132 1 -9 2 -29 2 -45 0 -31 34 -112 59 -140 53 -61 125
-123 186 -163 39 -26 75 -52 80 -59 19 -23 215 -105 450 -187 223 -77 246 -84
335 -98 41 -7 102 -18 135 -25 33 -8 92 -19 130 -25 39 -7 115 -21 170 -32
247 -49 912 -63 1350 -29 154 12 417 50 430 62 5 5 26 9 46 9 21 0 49 4 62 9
14 6 69 17 123 26 92 16 360 97 431 130 17 8 34 15 37 15 13 0 276 132 276
139 0 3 20 17 45 31 25 14 45 27 45 30 0 3 14 14 31 24 91 54 190 192 193 269
1 38 3 40 156 144 176 120 310 220 443 331 559 464 983 1036 1217 1643 l53
137 56 11 c31 5 90 11 131 12 41 1 122 8 180 16 58 8 137 18 175 23 39 5 129
22 200 38 72 16 159 33 195 37 36 3 69 10 75 15 5 4 35 15 65 24 129 36 383
131 388 146 2 5 8 10 14 10 17 0 168 73 168 81 0 5 14 16 32 25 17 9 41 25 52
36 12 11 33 26 47 33 14 8 52 42 85 78 59 64 104 151 104 202 0 18 11 33 38
51 430 292 585 417 863 694 419 418 693 820 886 1299 131 326 187 605 187 937
l1 190 -42 85 c-23 46 -65 111 -93 144 -187 221 -562 428 -1075 594 -155 51
-407 121 -432 121 -9 0 -13 -16 -13 -45z m-2241 -4301 c-96 -169 -313 -348
-596 -492 -161 -82 -262 -123 -503 -202 -866 -287 -2032 -435 -3280 -417 -427
6 -600 15 -975 48 -852 75 -1639 240 -2197 460 -310 122 -575 290 -735 464
-58 63 -135 175 -120 175 2 0 21 -25 41 -55 214 -310 891 -621 1765 -809 1019
-221 2290 -290 3491 -191 875 73 1666 236 2240 462 461 182 754 378 872 583
13 21 24 37 26 35 2 -2 -11 -30 -29 -61z"/>
<path d="M6116 5433 c-3 -21 -6 -57 -6 -80 0 -24 -3 -43 -6 -43 -7 0 -27 22
-40 45 -6 11 -14 19 -17 18 -4 -1 -20 2 -36 7 -20 5 -35 4 -48 -5 -10 -7 -27
-14 -38 -16 -16 -4 -9 -12 37 -45 32 -23 78 -47 103 -54 l45 -13 0 -141 c0
-77 4 -147 9 -154 4 -8 19 -12 32 -10 24 3 24 3 27 156 3 151 3 152 25 152 41
0 111 29 161 68 60 45 67 59 26 57 -16 -1 -30 2 -30 6 0 4 -22 -2 -49 -14 -27
-12 -47 -25 -45 -29 2 -4 -4 -9 -15 -13 -11 -3 -22 -12 -25 -20 -10 -26 -33
-16 -40 16 -3 17 -6 55 -6 84 0 46 -3 53 -22 59 -35 9 -35 9 -42 -31z"/>
</g>
</svg>
